<?xml version="1.0" standalone="no"?>
<!DOCTYPE svg PUBLIC "-//W3C//DTD SVG 20010904//EN"
 "http://www.w3.org/TR/2001/REC-SVG-20010904/DTD/svg10.dtd">
<svg version="1.0" xmlns="http://www.w3.org/2000/svg"
 width="183.000000pt" height="238.000000pt" viewBox="0 0 183.000000 238.000000"
 preserveAspectRatio="xMidYMid meet">

<g transform="translate(0.000000,238.000000) scale(0.100000,-0.100000)"
fill="#000000" stroke="none">
<path d="M921 2313 c6 -91 116 -348 224 -522 73 -119 177 -242 303 -363 101
-95 254 -218 272 -218 9 0 14 -14 11 -32 0 -4 8 -5 19 -3 11 2 20 0 20 -6 0
-5 -5 -9 -10 -9 -15 0 -186 -126 -264 -194 -105 -93 -250 -259 -327 -375 -59
-89 -103 -171 -199 -376 -11 -22 -24 -61 -29 -86 -6 -25 -13 -53 -17 -62 -13
-34 16 -15 58 38 24 30 142 180 263 332 367 462 570 723 572 736 2 7 -55 89
-125 182 -70 94 -246 330 -391 525 -146 195 -274 365 -285 376 -12 12 -34 40
-49 63 -16 22 -33 41 -38 41 -6 0 -9 -20 -8 -47z"/>
<path d="M1075 959 c-4 -6 -5 -12 -2 -15 2 -3 7 2 10 11 7 17 1 20 -8 4z"/>
<path d="M1047 953 c-4 -3 -7 -11 -7 -17 0 -6 5 -5 12 2 6 6 9 14 7 17 -3 3
-9 2 -12 -2z"/>
</g>
</svg>
